<?xml version="1.0" encoding="utf-8"?>
<!-- Generator: Adobe Illustrator 24.0.2, SVG Export Plug-In . SVG Version: 6.00 Build 0)  -->
<svg version="1.1" id="Capa_1" xmlns="http://www.w3.org/2000/svg" xmlns:xlink="http://www.w3.org/1999/xlink" x="0px" y="0px"
	 viewBox="0 0 1092 588" style="enable-background:new 0 0 1092 588;" xml:space="preserve">
<style type="text/css">
	.st0{display:none;fill:#FC3229;}
	.st1{fill:none;stroke:#FFFFFF;stroke-width:5;stroke-miterlimit:10;}
	.st2{display:none;fill:none;stroke:#FFFFFF;stroke-width:5;stroke-miterlimit:10;}
	.st3{fill:#FC3229;}
</style>
<polygon class="st0" points="631.31,262.01 632.32,270.6 633.98,270.02 "/>
<polygon class="st0" points="633.48,260.93 644.08,256.63 642.49,258.88 "/>
<polygon class="st0" points="633.98,257.84 644.41,248.62 643.58,245.12 "/>
<polygon class="st0" points="551.22,227.55 556.23,220.71 557.9,221.96 "/>
<path class="st0" d="M550.3,228.22c0,0-0.25-5.26-2.09-7.51c-0.92,0.67-2.34,2-2.34,2S549.55,225.89,550.3,228.22z"/>
<path class="st0" d="M540.37,226.14l-0.25,1.5c0,0,5.92,2.09,9.26,1.33C548.55,228.72,540.37,226.14,540.37,226.14z"/>
<g>
	<path class="st1" d="M183.42,185.61h44.5c0,0,8.94-173.55-101.08-124.42c-5.91,2.64-13.33,9.44-16.45,15.12
		c-16.74,30.41-37.22,111.49,39.13,185.21c14.92,14.99,76.97,75.58,26.48,90.36c-5.85,1.71-12.16,0.9-17.39-2.25
		c-16.28-9.81-38.93-32.13-41.75-47.79c-16.46,8.26-47.72,36.32-47.72,36.32s55.78,70.18,114.6,71.32
		c21.79-4.11,73.28-10.98,64.15-90.12c-6.31-30.65-39.78-69.73-44.64-75.28c-0.38-0.43-0.77-0.83-1.19-1.21
		c-5.28-4.84-43.95-40.85-51.5-63.67c-0.26-0.78-0.54-1.53-0.89-2.27c-5.4-11.52-15.16-58.02,4.69-78.71
		c3.95-4.12,10-5.71,15.33-3.66C178.6,97.97,185.31,152.64,183.42,185.61z"/>
	<polygon class="st1" points="243.06,189.61 296.06,171.61 319.56,421.61 377.06,332.61 424.56,403.61 508.56,157.61 555.56,198.61 
		446.56,473.61 407.06,488.61 373.06,429.61 334.06,488.61 282.06,469.61 	"/>
	<polygon class="st1" points="662.56,37.11 520.56,323.11 606.56,287.11 520.56,501.11 672.56,230.11 584.56,265.11 	"/>
	<path class="st1" d="M855.5,170.28c0,0,56.13,109.11-9.99,308.41c32.69,0.44,143.7,22.67,143.7,22.67s5.09-46.29,31.79-60.76
		c-26.98,7.12-116.36-9.68-116.36-9.68s13.64-65.45,15.86-80.47c15.56-0.4,61.31,7.31,61.31,7.31s1.31-32.51,21.31-41.09
		c-18.55,1.6-81.6-6.08-81.6-6.08l7.06-73.2l98.32,13.21l25.02-45.78C1051.93,204.82,900.3,186.9,855.5,170.28z"/>
	<path class="st1" d="M682.56,203.61c8,68.81,24.14,220.8,11,261c19,1,53-13,53-13l-9-90.5c0,0,119-12.5,107-120.5
		c0,0-18-156-167-98c-31,12-34,10-34,10l-26,79L682.56,203.61z M730.56,317.11l-12-127.5c100-22,92,51,93,62
		C818.56,311.61,730.56,317.11,730.56,317.11z"/>
	<polygon class="st2" points="1093.56,435.11 1105.56,538.11 1125.56,531.11 	"/>
	<polygon class="st2" points="1119.56,422.11 1246.56,370.61 1227.56,397.61 	"/>
	<polygon class="st2" points="1125.56,385.11 1250.56,274.61 1240.56,232.61 	"/>
	<polygon class="st2" points="133.56,22.11 193.56,-59.89 213.56,-44.89 	"/>
	<path class="st2" d="M122.56,30.11c0,0-3-63-25-90c-11,8-28,24-28,24S113.56,2.11,122.56,30.11z"/>
	<path class="st2" d="M3.56,5.11l-3,18c0,0,71,25,111,16C101.56,36.11,3.56,5.11,3.56,5.11z"/>
</g>
<path class="st3" d="M204.42,175.61h44.5c0,0,8.94-173.55-101.08-124.42c-5.91,2.64-13.33,9.44-16.45,15.12
	c-16.74,30.41-37.22,111.49,39.13,185.21c14.92,14.99,76.97,75.58,26.48,90.36c-5.85,1.71-12.16,0.9-17.39-2.25
	c-16.28-9.81-38.93-32.13-41.75-47.79c-16.46,8.26-47.72,36.32-47.72,36.32s55.78,70.18,114.6,71.32
	c21.79-4.11,73.28-10.98,64.15-90.12c-6.31-30.65-39.78-69.73-44.64-75.28c-0.38-0.43-0.77-0.83-1.19-1.21
	c-5.28-4.84-43.95-40.85-51.5-63.67c-0.26-0.78-0.54-1.53-0.89-2.27c-5.4-11.52-15.16-58.02,4.69-78.71
	c3.95-4.12,10-5.71,15.33-3.66C199.6,87.97,206.31,142.64,204.42,175.61z"/>
<polygon class="st3" points="264.06,179.61 317.06,161.61 340.56,411.61 398.06,322.61 445.56,393.61 529.56,147.61 576.56,188.61 
	467.56,463.61 428.06,478.61 394.06,419.61 355.06,478.61 303.06,459.61 "/>
<polygon class="st3" points="683.56,27.11 541.56,313.11 627.56,277.11 541.56,491.11 693.56,220.11 605.56,255.11 "/>
<path class="st3" d="M876.5,160.28c0,0,56.13,109.11-9.99,308.41c32.69,0.44,143.7,22.67,143.7,22.67s5.09-46.29,31.79-60.76
	c-26.98,7.12-116.36-9.68-116.36-9.68s13.64-65.45,15.86-80.47c15.56-0.4,61.31,7.31,61.31,7.31s1.31-32.51,21.31-41.09
	c-18.55,1.6-81.6-6.08-81.6-6.08l7.06-73.2l98.32,13.21l25.02-45.78C1072.93,194.82,921.3,176.9,876.5,160.28z"/>
<path class="st3" d="M703.56,193.61c8,68.81,24.14,220.8,11,261c19,1,53-13,53-13l-9-90.5c0,0,119-12.5,107-120.5c0,0-18-156-167-98
	c-31,12-34,10-34,10l-26,79L703.56,193.61z M751.56,307.11l-12-127.5c100-22,92,51,93,62C839.56,301.61,751.56,307.11,751.56,307.11
	z"/>
<polygon class="st0" points="1062.56,449.11 1074.56,552.11 1094.56,545.11 "/>
<polygon class="st0" points="1088.56,436.11 1215.56,384.61 1196.56,411.61 "/>
<polygon class="st0" points="1094.56,399.11 1219.56,288.61 1209.56,246.61 "/>
<polygon class="st0" points="102.56,36.11 162.56,-45.89 182.56,-30.89 "/>
<path class="st0" d="M91.56,44.11c0,0-3-63-25-90c-11,8-28,24-28,24S82.56,16.11,91.56,44.11z"/>
<path class="st0" d="M-27.44,19.11l-3,18c0,0,71,25,111,16C70.56,50.11-27.44,19.11-27.44,19.11z"/>
<g>
	<path d="M113.13,45.07C88.58,46.81,64.98,59.28,49.7,78.58c-9.43,11.92-15.64,26.02-21.6,40c-3.31,7.76-6.54,16.84-2.56,24.28
		c1.81,3.38,4.89,5.88,8.09,7.99c7.79,5.15,17.93,8.51,26.4,4.59c8.33-3.85,12.4-13.58,13.08-22.72c0.68-9.15-1.25-18.29-1.27-27.46
		C71.79,80.96,94.3,57.81,113.13,45.07z"/>
	<path d="M1013.69,516.14c2.08-2.77,3.07-6.19,3.94-9.53c2.54-9.69,4.43-19.55,5.68-29.49c10.4,13.08,17.28,28.93,19.74,45.46
		c1.06,7.14,1.29,14.55-0.77,21.46c-4.3,14.43-18.07,24.45-32.59,28.44c-14.52,3.99-29.88,2.97-44.9,1.93
		c-4.19-0.29-8.54-0.63-12.21-2.69c-2.83-1.59-5.03-4.1-6.84-6.79c-7.14-10.6-8.61-24.79-3.78-36.63c0.58-1.41,1.28-2.85,2.49-3.79
		c1.16-0.9,2.64-1.23,4.08-1.5C964.67,519.92,1002.36,531.26,1013.69,516.14z"/>
	<path d="M56.33,164.32c0.43-0.07,0.86-0.14,1.28-0.04c1.09,0.25,2.05,1.55,2.96,2.81c-0.95,4.05-3,6.53-5.02,8.29
		c-2.23,1.93-4.63,3.3-7.04,3.01c-0.8-0.09-1.63-0.39-2.29-1.33c-2.59-3.65-0.56-9.37,1.66-10.92
		C50.45,164.34,53.62,164.76,56.33,164.32z"/>
	<path d="M40.7,171c-0.52,2.45-2.76,4.3-5.19,4.82c-2.44,0.52-5-0.13-7.21-1.28c-5.58-2.9-9.25-9.2-9.04-15.53
		c0.04-1.26,0.22-2.54-0.06-3.77c-0.57-2.48-2.9-4.22-3.58-6.67c-0.07-0.24-0.11-0.52,0.05-0.71c0.13-0.16,0.36-0.2,0.56-0.21
		c3.73-0.33,7.37,1.54,10.08,4.14c3.43,3.28,5.05,8.04,8.41,11.27C37.18,165.43,41.64,166.53,40.7,171z"/>
	<path d="M935.2,524.38c1.06-0.61,2.23-0.94,3.17-1.83s1.56-2.63,0.97-3.93c-0.43-0.96-1.34-1.34-2.18-1.58
		c-3.96-1.16-8.12-1.17-12.08-0.04c-1.53,0.44-3.08,1.07-4.28,2.38c-1.33,1.45-2.13,3.68-2.14,5.94c-0.02,5.52,4.69,9.27,8.64,8.33
		C931.09,532.74,931.65,526.41,935.2,524.38z"/>
	<path d="M914.57,549.5c0.04,1.38,0.12,2.78,0.52,4.11c1.06,3.52,4.5,6.2,8.19,6.38c9.47,0.47,12.5-13.04,7.79-19.54
		c-2.11-2.92-6.68-3.28-9.93-2.43C915.66,539.44,914.45,544.48,914.57,549.5z"/>
</g>
<path class="st3" d="M122.13,44.07C97.58,45.81,73.98,58.28,58.7,77.58c-9.43,11.92-15.64,26.02-21.6,40
	c-3.31,7.76-6.54,16.84-2.56,24.28c1.81,3.38,4.89,5.88,8.09,7.99c7.79,5.15,17.93,8.51,26.4,4.59c8.33-3.85,12.4-13.58,13.08-22.72
	c0.68-9.15-1.25-18.29-1.27-27.46C80.79,79.96,103.3,56.81,122.13,44.07z"/>
<path class="st3" d="M1018.69,509.14c2.08-2.77,3.07-6.19,3.94-9.53c2.54-9.69,4.43-19.55,5.68-29.49
	c10.4,13.08,17.28,28.93,19.74,45.46c1.06,7.14,1.29,14.55-0.77,21.46c-4.3,14.43-18.07,24.45-32.59,28.44
	c-14.52,3.99-29.88,2.97-44.9,1.93c-4.19-0.29-8.54-0.63-12.21-2.69c-2.83-1.59-5.03-4.1-6.84-6.79
	c-7.14-10.6-8.61-24.79-3.78-36.63c0.58-1.41,1.28-2.85,2.49-3.79c1.16-0.9,2.64-1.23,4.08-1.5
	C969.67,512.92,1007.36,524.26,1018.69,509.14z"/>
<path class="st3" d="M65.33,163.32c0.43-0.07,0.86-0.14,1.28-0.04c1.09,0.25,2.05,1.55,2.96,2.81c-0.95,4.05-3,6.53-5.02,8.29
	c-2.23,1.93-4.63,3.3-7.04,3.01c-0.8-0.09-1.63-0.39-2.29-1.33c-2.59-3.65-0.56-9.37,1.66-10.92
	C59.45,163.34,62.62,163.76,65.33,163.32z"/>
<path class="st3" d="M49.7,170c-0.52,2.45-2.76,4.3-5.19,4.82c-2.44,0.52-5-0.13-7.21-1.28c-5.58-2.9-9.25-9.2-9.04-15.53
	c0.04-1.26,0.22-2.54-0.06-3.77c-0.57-2.48-2.9-4.22-3.58-6.67c-0.07-0.24-0.11-0.52,0.05-0.71c0.13-0.16,0.36-0.2,0.56-0.21
	c3.73-0.33,7.37,1.54,10.08,4.14c3.43,3.28,5.05,8.04,8.41,11.27C46.18,164.43,50.64,165.53,49.7,170z"/>
<path class="st3" d="M940.2,517.38c1.06-0.61,2.23-0.94,3.17-1.83s1.56-2.63,0.97-3.93c-0.43-0.96-1.34-1.34-2.18-1.58
	c-3.96-1.16-8.12-1.17-12.08-0.04c-1.53,0.44-3.08,1.07-4.28,2.38c-1.33,1.45-2.13,3.68-2.14,5.94c-0.02,5.52,4.69,9.27,8.64,8.33
	C936.09,525.74,936.65,519.41,940.2,517.38z"/>
<path class="st3" d="M919.57,542.5c0.04,1.38,0.12,2.78,0.52,4.11c1.06,3.52,4.5,6.2,8.19,6.38c9.47,0.47,12.5-13.04,7.79-19.54
	c-2.11-2.92-6.68-3.28-9.93-2.43C920.66,532.44,919.45,537.48,919.57,542.5z"/>
</svg>
