<?xml version="1.0" encoding="utf-8"?>
<!-- Generator: Adobe Illustrator 24.0.2, SVG Export Plug-In . SVG Version: 6.00 Build 0)  -->
<svg version="1.1" id="Capa_1" xmlns="http://www.w3.org/2000/svg" xmlns:xlink="http://www.w3.org/1999/xlink" x="0px" y="0px"
	 viewBox="0 0 363 451" style="enable-background:new 0 0 363 451;" xml:space="preserve">
<style type="text/css">
	.st0{fill:#FC3229;}
	.st1{fill:#FF00E1;}
</style>
<path class="st0" d="M4.88,14.54C19.07,9.88,33.62,6.31,48.35,3.88c33.58-5.55,73.86-2.34,93.05,25.77
	c6.44,9.44,9.67,20.67,15.13,30.71c5.45,10.04,14.34,19.48,25.73,20.47c9.49,0.83,18.39-4.37,26.11-9.95
	c18.54-13.38,35.28-30.42,57.04-37.43c21.76-7.01,51.04,1.43,56.12,23.72c-11.14-4.37-22.88-8.82-34.75-7.29
	c-11.87,1.53-23.6,11.29-22.85,23.23c0.32,5.17,2.85,9.92,5.36,14.46c5,9.02,10.34,19.03,8.14,29.1c-1.42,6.48-5.79,11.9-8.04,18.14
	c-5.9,16.34,6.62,36.55,23.88,38.55s34.07-14.81,32.07-32.06c4.73-9.77,21.73-2.22,22.2,8.63c0.47,10.85-8.32,19.6-16.48,26.76
	c-13,11.39-26.69,22.89-43.27,27.74c-16.58,4.86-36.9,1.27-46.77-12.91c-7.32-10.5-7.54-24.26-6.88-37.05
	c0.25-4.88,0.31-10.48-3.33-13.75c-2.49-2.24-6.06-2.7-9.39-3.07c-17.82-1.94-40.35-1.41-47.94,14.83
	c-15.23-10.41-26.66-26.24-31.74-43.97c-16.1-11.93-40.4,6.93-40.4,26.97s14.96,36.74,30.23,49.72
	c43.18,36.71,96.7,61.13,152.73,69.69c6.33,0.97,13.12,1.92,17.9,6.19c4.78,4.27,5.89,13.17,0.44,16.55
	c-1.5,0.93-3.26,1.32-4.99,1.63c-65.22,11.84-121.53-57.95-187.75-54.9c-4.03,0.19-8.25,0.72-11.54,3.07
	c-8.49,6.07-5.05,20.53,3.55,26.44s19.73,6.03,30.13,6.85s21.86,3.2,27.93,11.68c-19.01,2.6-37.84,6.52-56.31,11.71
	c-6.67,1.88-13.62,4.11-18.38,9.16c-6.41,6.8-7.31,16.99-7.55,26.34c-0.65,25.68,1.11,51.42,5.26,76.77
	c0.8,4.92,1.67,10.14-0.25,14.74c-2.15,5.15-7.27,8.32-12.08,11.15c-14.25,8.37-28.5,16.75-42.76,25.12
	c-1.96-115.36-7.82-233-9.78-348.36C17.63,72.29,17.52,38.12,4.88,14.54z"/>
<path class="st1" d="M180.24,33.42c-2.47,4.03-1.2,9.66,2.18,12.96c3.39,3.31,8.4,4.53,13.12,4.2
	c11.36-0.79,21.63-11.52,20.32-22.84c-1.31-11.32-15.68-19.4-25.38-13.43c-2.96,5.01-3.89,11.17-2.56,16.82"/>
<path class="st1" d="M317.33,85.48c-1.5-3.08-6.06-3.48-8.97-1.66c-2.91,1.82-4.53,5.09-5.94,8.21c-3.26,7.18-6.19,14.51-8.8,21.95
	c-2.1,6-3.64,13.61,1.01,17.95c5.01,4.69,13.3,1.81,18.68-2.45c5.38-4.26,10.4-9.93,17.22-10.65c6.32-0.66,12.66,3.23,18.83,1.73
	c7.1-1.74,10.78-10.63,8.52-17.59c-2.26-6.95-8.95-11.73-16-13.68s-14.5-1.53-21.8-1.1"/>
</svg>
