<?xml version="1.0" encoding="utf-8"?>
<!-- Generator: Adobe Illustrator 24.0.2, SVG Export Plug-In . SVG Version: 6.00 Build 0)  -->
<svg version="1.1" id="Capa_1" xmlns="http://www.w3.org/2000/svg" xmlns:xlink="http://www.w3.org/1999/xlink" x="0px" y="0px"
	 viewBox="0 0 498 421" style="enable-background:new 0 0 498 421;" xml:space="preserve">
<style type="text/css">
	.st0{fill:#FC3229;}
	.st1{fill:#FF00E1;}
</style>
<path class="st0" d="M497.5,2.56c-41.6,21.06-83.19,42.12-124.79,63.19c-7.84,3.97-15.97,8.02-24.75,8.47
	c-14.75,0.76-27.93-8.65-42.24-12.32c-26.45-6.79-56.75,9.28-65.98,34.99c-5.7,15.88-4.24,34.44-13.79,48.35
	c-10.05,14.63-29.76,19.68-47.44,18.14c-17.69-1.54-34.41-8.39-51.61-12.78c-35.42-9.03-73.47-7.42-108,4.56
	c30.01,2.73,60.01,5.47,90.02,8.2c6.32,0.58,12.93,1.25,18.25,4.71c5.32,3.46,8.79,10.67,5.95,16.34
	c-22.02,8.27-48.93-10.52-69.22,1.38c-15.75,9.23-17.36,31.89-11.58,49.21s16.89,32.76,20.49,50.66c4.29-9.32,4.24-20.54-0.15-29.81
	c-3.47-7.33-9.53-13.68-10.63-21.71C60,219.4,75.89,207.9,90.67,206.3s29.66,2.88,44.48,1.79c14.04-1.03,27.18-6.95,40.6-11.2
	c13.42-4.25,28.39-6.78,41.3-1.17c12.91,5.61,21.78,22.07,14.95,34.38c-18.5,2.36-36.32,9.87-50.93,21.47
	c6.76,13.18,26.96,9.67,39.06,1.11c12.09-8.56,23.95-20.84,38.71-19.56c14.75,1.28,25.01,16.7,25.74,31.49s-5.61,28.9-11.91,42.29
	c-2.79,5.92-5.78,12.05-10.97,16.03c-6.27,4.8-14.59,5.63-22.34,7.1c-15.29,2.91-30.32,9.28-41.16,20.45
	c-10.83,11.17-16.87,27.62-13.18,42.74c-1.83-20.37,23.17-31.99,43.59-33.26c20.41-1.27,44.22,0.19,57.45-15.4
	c19.16-22.57,1.22-64.91,25.01-82.53c11.53-8.53,29.97-5.22,37.81,6.78c7.84,12.01,3.45,30.23-9,37.35
	c13.22-18.73,38-28.51,60.45-23.85c17.02,3.53,31.58,14.28,47.82,20.5c16.24,6.22,37.43,6.5,48.08-7.25"/>
<path class="st1" d="M137.33,220.2c-15.27-0.04-30.55-0.08-45.82-0.12c-1.68,0-3.54,0.06-4.75,1.23c-1.55,1.49-1.28,4-0.89,6.12
	c2.53,13.76,5.06,27.51,7.6,41.27c0.78,4.22,1.67,8.69,4.6,11.84c4.91,5.28,13.27,4.76,20.42,3.83c2.94-0.38,6.23-0.96,7.96-3.37
	c1.14-1.58,1.35-3.63,1.35-5.57c0.02-6.08-1.6-12.07-1.69-18.15c-0.09-6.08,1.81-12.77,6.98-15.97c6.22-3.85,16.99-3.3,17.89-10.56
	c-5.92-2.08-11.84-4.16-17.77-6.24"/>
<path class="st1" d="M428.14,309.15c-11.12-5.13-22.55-10.35-34.76-11.24c-12.22-0.89-25.58,3.47-32.12,13.83
	c-0.63,0.99-1.19,2.06-1.39,3.21c-0.63,3.73,2.9,7.08,6.6,7.86s7.5-0.24,11.23-0.89c7.96-1.39,16.39-1.05,23.78,2.22
	c7.95,3.53,14.06,10.1,20.97,15.38c9.96,7.6,29.93,13.39,34.03-3.98C460.23,319.69,439.15,314.23,428.14,309.15z"/>
<path class="st1" d="M246.46,370.62c-9.21,1.13-18.54,2.29-27.11,5.84c-11.83,4.89-21.36,13.95-30.59,22.81
	c-4.14,3.98-8.66,9.11-7.31,14.69c6.05,2.35,12.25,4.73,18.73,4.93c6.49,0.21,13.43-2.17,17.03-7.58c2.34-3.52,3.2-8.13,6.51-10.75
	c2.34-1.85,5.46-2.32,8.42-2.69c21.51-2.71,43.22-3.86,64.9-3.43c17.32,0.34,35.34-15.44,15.03-28.26
	C297.77,357.16,261.77,368.74,246.46,370.62z"/>
<path class="st1" d="M211.5,114.46c-0.01,2.49-0.22,5.24-2.01,6.97c-1.53,1.49-3.82,1.81-5.95,2c-28.53,2.62-57-3.75-85.44-7.24
	c-28.44-3.49-58.77-3.76-83.98,9.86c-6.86,3.71-14.24,8.56-21.81,6.66c-12.61-3.17-12.81-23.12-2.79-31.4s24.32-8.13,37.31-7.56
	c36.29,1.59,72.59,3.19,108.88,4.78c3.8,0.17,7.91,0.25,11.05-1.89c8.24-5.62,2.24-18.34,2.89-28.3
	c1.51-23.43,52.21-37.96,64.89-19.41C209.27,66.2,211.65,86.2,211.5,114.46z"/>
</svg>
