<?xml version="1.0" encoding="utf-8"?>
<!-- Generator: Adobe Illustrator 24.0.2, SVG Export Plug-In . SVG Version: 6.00 Build 0)  -->
<svg version="1.1" id="Capa_1" xmlns="http://www.w3.org/2000/svg" xmlns:xlink="http://www.w3.org/1999/xlink" x="0px" y="0px"
	 viewBox="0 0 240 520" style="enable-background:new 0 0 240 520;" xml:space="preserve">
<style type="text/css">
	.st0{fill:none;stroke:#FFFFFF;stroke-width:5;stroke-miterlimit:10;}
	.st1{display:none;fill:none;stroke:#FFFFFF;stroke-width:5;stroke-miterlimit:10;}
	.st2{fill:#FC3229;}
	.st3{display:none;fill:#FC3229;}
</style>
<g>
	<polygon class="st0" points="173.56,37.11 31.56,323.11 117.56,287.11 31.56,501.11 183.56,230.11 95.56,265.11 	"/>
	<polygon class="st1" points="604.56,435.11 616.56,538.11 636.56,531.11 	"/>
	<polygon class="st1" points="630.56,422.11 757.56,370.61 738.56,397.61 	"/>
	<polygon class="st1" points="636.56,385.11 761.56,274.61 751.56,232.61 	"/>
	<polygon class="st1" points="-355.44,22.11 -295.44,-59.89 -275.44,-44.89 	"/>
	<path class="st1" d="M-366.44,30.11c0,0-3-63-25-90c-11,8-28,24-28,24S-375.44,2.11-366.44,30.11z"/>
	<path class="st1" d="M-485.44,5.11l-3,18c0,0,71,25,111,16C-387.44,36.11-485.44,5.11-485.44,5.11z"/>
</g>
<polygon class="st2" points="194.56,27.11 52.56,313.11 138.56,277.11 52.56,491.11 204.56,220.11 116.56,255.11 "/>
<polygon class="st3" points="573.56,449.11 585.56,552.11 605.56,545.11 "/>
<polygon class="st3" points="599.56,436.11 726.56,384.61 707.56,411.61 "/>
<polygon class="st3" points="605.56,399.11 730.56,288.61 720.56,246.61 "/>
<polygon class="st3" points="-386.44,36.11 -326.44,-45.89 -306.44,-30.89 "/>
<path class="st3" d="M-397.44,44.11c0,0-3-63-25-90c-11,8-28,24-28,24S-406.44,16.11-397.44,44.11z"/>
<path class="st3" d="M-516.44,19.11l-3,18c0,0,71,25,111,16C-418.44,50.11-516.44,19.11-516.44,19.11z"/>
</svg>
